# Blender v2.79 (sub 0) OBJ File: 'inkwell.blend'
# www.blender.org
mtllib inkwell.mtl
o Plane
v -0.326906 -0.499355 0.326906
v -0.326906 0.154457 0.326906
v -0.326906 -0.499355 -0.326906
v -0.326906 0.154457 -0.326906
v 0.326906 -0.499355 0.326906
v 0.326906 0.154457 0.326906
v 0.326906 -0.499355 -0.326906
v 0.326906 0.154457 -0.326906
v -0.326906 0.154457 0.326906
v -0.326906 -0.499355 0.326906
v -0.326906 -0.499355 -0.326906
v -0.326906 0.154457 -0.326906
v 0.326906 -0.499355 -0.326906
v 0.326906 0.154457 -0.326906
v 0.326906 -0.499355 0.326906
v 0.326906 0.154457 0.326906
v -0.326906 -0.499355 -0.382407
v -0.326906 0.154457 -0.382407
v 0.326906 0.154457 -0.382407
v 0.326906 -0.499355 -0.382407
v -0.382407 -0.499355 0.326906
v -0.382407 0.154457 0.326906
v -0.382407 0.154457 -0.326906
v -0.382407 -0.499355 -0.326906
v 0.382407 -0.499355 -0.326906
v 0.382407 0.154457 -0.326906
v 0.382407 0.154457 0.326906
v 0.382407 -0.499355 0.326906
v 0.326906 -0.499355 0.382407
v 0.326906 0.154457 0.382407
v -0.326906 0.154457 0.382407
v -0.326906 -0.499355 0.382407
v -0.191083 0.329875 -0.191083
v 0.191083 0.329875 0.191083
v -0.192512 0.328030 0.192512
v 0.191083 0.329875 -0.191083
v 0.192284 0.441782 0.140446
v 0.192284 0.318364 0.140446
v 0.133076 0.441782 0.140446
v 0.133076 0.318364 0.140446
v 0.192284 0.441782 -0.133573
v 0.192284 0.318364 -0.133573
v 0.133076 0.441782 -0.133573
v 0.133076 0.318364 -0.133573
v -0.132086 0.441782 0.133285
v -0.132086 0.318364 0.133285
v -0.191295 0.441782 0.133285
v -0.191295 0.318364 0.133285
v -0.132086 0.441782 -0.131683
v -0.132086 0.318364 -0.131683
v -0.191295 0.441782 -0.131683
v -0.191295 0.318364 -0.131683
v 0.191182 0.442226 -0.189511
v 0.191182 0.318807 -0.189511
v 0.191182 0.442226 -0.130303
v 0.191182 0.318807 -0.130303
v -0.191331 0.442226 -0.189511
v -0.191331 0.318807 -0.189511
v -0.191331 0.442226 -0.130303
v -0.191331 0.318807 -0.130303
v 0.191182 0.442226 0.132354
v 0.191182 0.318807 0.132354
v 0.191182 0.442226 0.191563
v 0.191182 0.318807 0.191563
v -0.191331 0.442226 0.132354
v -0.191331 0.318807 0.132354
v -0.191331 0.442226 0.191563
v -0.191331 0.318807 0.191563
vn 0.0000 0.0000 1.0000
vn 0.0000 -1.0000 0.0000
vn 0.7907 0.6122 0.0000
vn -0.7907 0.6122 0.0000
vn 0.0000 0.6122 0.7907
vn 0.0000 0.6122 -0.7907
vn 0.0000 0.0000 -1.0000
vn 0.0000 1.0000 0.0000
vn -1.0000 0.0000 0.0000
vn 1.0000 0.0000 0.0000
vn 0.7071 0.0000 0.7071
vn -0.7071 0.0000 0.7071
vn -0.7071 0.0000 -0.7071
vn 0.7071 0.0000 -0.7071
usemtl None
s off
f 2//1 4//1 12//1 9//1
f 7//1 3//1 11//1 13//1
f 8//1 6//1 16//1 14//1
f 1//1 5//1 15//1 10//1
f 3//2 7//2 5//2 1//2
f 6//3 8//3 36//3 34//3
f 4//4 2//4 35//4 33//4
f 2//5 6//5 34//5 35//5
f 8//6 4//6 33//6 36//6
f 6//1 2//1 9//1 16//1
f 3//1 1//1 10//1 11//1
f 5//1 7//1 13//1 15//1
f 4//1 8//1 14//1 12//1
f 17//7 18//7 19//7 20//7
f 18//8 23//8 12//8
f 14//8 19//8 18//8 12//8
f 32//2 21//2 10//2
f 11//2 17//2 20//2 13//2
f 21//9 22//9 23//9 24//9
f 13//2 20//2 25//2
f 12//8 23//8 22//8 9//8
f 24//2 17//2 11//2
f 10//2 21//2 24//2 11//2
f 25//10 26//10 27//10 28//10
f 22//8 31//8 9//8
f 16//8 27//8 26//8 14//8
f 13//2 25//2 28//2 15//2
f 29//1 30//1 31//1 32//1
f 9//8 31//8 30//8 16//8
f 19//8 14//8 26//8
f 15//2 29//2 32//2 10//2
f 15//2 28//2 29//2
f 27//8 16//8 30//8
f 28//11 27//11 30//11 29//11
f 31//12 22//12 21//12 32//12
f 24//13 23//13 18//13 17//13
f 20//14 19//14 26//14 25//14
f 37//7 38//7 40//7 39//7
f 39//10 40//10 44//10 43//10
f 43//1 44//1 42//1 41//1
f 41//9 42//9 38//9 37//9
f 39//2 43//2 41//2 37//2
f 44//8 40//8 38//8 42//8
f 45//7 46//7 48//7 47//7
f 47//10 48//10 52//10 51//10
f 51//1 52//1 50//1 49//1
f 49//9 50//9 46//9 45//9
f 47//2 51//2 49//2 45//2
f 52//8 48//8 46//8 50//8
f 53//9 54//9 56//9 55//9
f 55//7 56//7 60//7 59//7
f 59//10 60//10 58//10 57//10
f 57//1 58//1 54//1 53//1
f 55//2 59//2 57//2 53//2
f 60//8 56//8 54//8 58//8
f 61//9 62//9 64//9 63//9
f 63//7 64//7 68//7 67//7
f 67//10 68//10 66//10 65//10
f 65//1 66//1 62//1 61//1
f 63//2 67//2 65//2 61//2
f 68//8 64//8 62//8 66//8
